<?xml version="1.0" standalone="no"?>
<!DOCTYPE svg PUBLIC "-//W3C//DTD SVG 20010904//EN"
 "http://www.w3.org/TR/2001/REC-SVG-20010904/DTD/svg10.dtd">
<svg version="1.0" xmlns="http://www.w3.org/2000/svg"
 width="842.000000pt" height="842.000000pt" viewBox="0 0 842.000000 842.000000"
 preserveAspectRatio="xMidYMid meet">
<metadata>
Created by potrace 1.11, written by Peter Selinger 2001-2013
</metadata>
<g transform="translate(0.000000,842.000000) scale(0.100000,-0.100000)"
fill="#000000" stroke="none">
<path d="M1886 6485 c-210 -208 -265 -267 -259 -282 3 -10 24 -56 45 -102 21
-46 38 -90 38 -97 0 -7 3 -14 8 -16 4 -1 22 -39 41 -83 19 -44 44 -102 57
-130 47 -107 64 -146 134 -305 40 -91 81 -185 92 -210 42 -94 61 -136 74 -165
62 -141 194 -442 199 -455 3 -9 37 -84 71 -158 19 -41 34 -75 34 -77 0 -2 13
-32 29 -67 16 -35 61 -137 101 -228 40 -91 81 -185 92 -210 11 -25 26 -58 33
-75 13 -29 34 -77 89 -198 14 -32 26 -59 26 -62 0 -2 14 -34 31 -72 17 -37 37
-81 44 -98 7 -16 25 -55 39 -86 14 -31 26 -58 26 -61 0 -3 17 -41 37 -84 20
-43 37 -81 38 -84 0 -3 15 -39 34 -80 18 -41 47 -103 62 -138 16 -35 29 -66
29 -68 0 -3 13 -33 29 -67 16 -34 35 -78 44 -97 8 -19 25 -57 37 -85 12 -27
28 -63 35 -80 7 -16 27 -60 44 -98 17 -37 31 -69 31 -71 0 -3 16 -40 36 -83
20 -43 37 -82 39 -88 1 -5 21 -50 43 -98 23 -49 42 -91 42 -94 0 -2 10 -25 22
-51 12 -26 22 -49 23 -52 0 -3 9 -20 18 -37 10 -18 18 -35 18 -38 0 -2 11 -31
26 -62 26 -60 45 -104 48 -113 1 -3 12 -27 24 -55 13 -27 26 -58 30 -67 5 -14
57 33 254 226 136 135 247 246 247 249 0 2 -13 30 -29 63 -15 32 -41 86 -56
119 -30 64 -82 175 -150 320 -67 143 -115 245 -147 315 -16 36 -34 72 -39 80
-5 8 -12 22 -15 30 -3 8 -21 47 -39 85 -18 39 -45 97 -60 129 l-27 60 530 525
c292 290 644 638 781 774 138 137 254 247 258 244 12 -6 200 -97 353 -170 74
-35 209 -100 300 -145 292 -142 441 -212 450 -212 6 0 10 -4 10 -8 0 -5 18
-15 40 -22 l39 -13 217 214 c228 225 251 249 256 262 2 4 -40 27 -92 51 -52
23 -117 53 -145 66 -27 13 -52 25 -55 25 -6 2 -66 29 -173 79 -42 20 -79 36
-81 36 -2 0 -56 25 -121 55 -64 30 -118 55 -119 55 -2 0 -46 20 -97 44 -52 24
-211 96 -354 161 -143 64 -285 129 -315 143 -30 13 -89 40 -130 59 -41 19 -88
40 -105 48 -16 8 -55 25 -85 38 -30 14 -94 43 -143 66 -48 22 -89 41 -91 41
-2 0 -47 20 -100 45 -53 25 -98 45 -100 45 -2 0 -43 19 -92 42 -49 23 -91 43
-94 43 -6 2 -68 30 -183 84 -49 22 -90 41 -92 41 -2 0 -38 17 -82 37 -43 21
-80 38 -83 39 -8 2 -69 29 -175 79 -53 25 -99 45 -101 45 -2 0 -32 14 -66 31
-35 17 -83 39 -108 49 -25 10 -85 37 -135 60 -184 86 -212 99 -305 140 -52 23
-117 52 -145 65 -27 13 -72 33 -100 45 -27 13 -92 42 -143 66 -52 24 -95 44
-97 44 -1 0 -49 22 -106 48 -57 27 -111 51 -119 54 -8 4 -58 26 -111 51 l-97
45 -266 -263z m563 -515 c45 -22 83 -40 85 -40 2 0 55 -24 117 -54 63 -29 139
-65 169 -79 30 -14 98 -45 150 -70 52 -24 129 -60 170 -79 170 -79 201 -94
340 -158 203 -95 325 -152 395 -186 33 -16 62 -29 65 -29 5 -1 97 -44 225
-105 44 -21 112 -52 150 -70 39 -18 104 -49 145 -68 41 -20 77 -37 80 -37 16
-4 140 -66 140 -70 0 -4 -230 -234 -1001 -997 l-267 -264 -18 40 c-9 23 -32
73 -50 111 -18 39 -43 95 -57 125 -68 152 -178 393 -209 459 -16 36 -49 108
-73 160 -85 189 -97 217 -120 266 -12 28 -34 75 -48 105 -13 30 -39 87 -57
125 -18 39 -40 88 -50 110 -10 22 -29 65 -43 95 -13 30 -35 78 -47 105 -12 28
-37 82 -55 120 -18 39 -42 93 -55 120 -12 28 -34 75 -48 105 -13 30 -36 80
-49 110 -13 30 -33 74 -44 97 -11 23 -19 44 -17 47 2 2 -6 13 -16 25 -30 33
-1 27 93 -19z"/>
</g>
</svg>
