<?xml version="1.0" standalone="no"?>
<!DOCTYPE svg PUBLIC "-//W3C//DTD SVG 20010904//EN"
 "http://www.w3.org/TR/2001/REC-SVG-20010904/DTD/svg10.dtd">
<svg version="1.0" xmlns="http://www.w3.org/2000/svg"
 width="842.000000pt" height="842.000000pt" viewBox="0 0 842.000000 842.000000"
 preserveAspectRatio="xMidYMid meet">
<metadata>
Created by potrace 1.11, written by Peter Selinger 2001-2013
</metadata>
<g transform="translate(0.000000,842.000000) scale(0.100000,-0.100000)"
fill="#000000" stroke="none">
<path d="M1730 7070 c-4 -8 -9 -19 -10 -25 -2 -5 -4 -14 -6 -20 -1 -5 -21 -80
-44 -165 -23 -85 -45 -166 -50 -180 -5 -14 -12 -36 -14 -50 -3 -14 -12 -50
-21 -80 -10 -30 -19 -66 -22 -79 -2 -13 -8 -31 -12 -40 -5 -9 -9 -19 -10 -23
-1 -5 -1 -9 -2 -10 0 -2 -2 -10 -4 -18 -1 -8 -17 -67 -35 -130 -41 -147 -50
-181 -55 -205 -3 -11 -13 -49 -24 -85 -17 -57 -54 -186 -65 -230 -2 -8 -19
-67 -36 -130 -18 -63 -33 -119 -35 -125 -1 -5 -8 -30 -15 -55 -7 -25 -14 -50
-16 -56 -1 -7 -14 -54 -29 -105 -15 -52 -29 -101 -31 -109 -2 -8 -13 -49 -25
-90 -32 -114 -39 -141 -50 -185 -5 -22 -14 -51 -19 -65 -5 -14 -12 -36 -14
-50 -3 -14 -10 -41 -16 -60 -6 -19 -13 -42 -15 -50 -10 -44 -67 -249 -75 -270
-5 -14 -12 -36 -14 -50 -3 -14 -19 -72 -36 -130 -17 -58 -33 -114 -35 -125 -3
-11 -21 -76 -40 -145 -40 -138 -43 -150 -50 -182 -3 -13 -12 -45 -20 -73 -29
-96 -67 -230 -71 -252 -2 -12 -9 -34 -14 -48 -5 -14 -7 -25 -5 -25 2 0 0 -11
-5 -25 -5 -13 -45 -154 -89 -312 -44 -159 -85 -301 -90 -318 -5 -16 -24 -84
-41 -150 -18 -66 -34 -127 -37 -135 -7 -18 -10 -28 -17 -55 -3 -11 -14 -54
-26 -95 -11 -41 -22 -82 -25 -90 -15 -60 -238 -856 -242 -866 -4 -12 261 -14
1640 -14 l1645 0 5 33 c3 17 8 50 11 72 4 22 9 47 11 55 3 8 7 32 11 54 3 21
8 48 10 60 2 11 6 35 9 51 6 34 46 257 76 420 12 61 23 126 25 145 3 19 7 42
9 50 3 8 7 33 11 55 3 22 7 41 9 43 6 6 1125 3 1135 -3 6 -4 10 -14 9 -23 -2
-10 0 -30 4 -47 4 -16 9 -48 12 -70 3 -22 7 -53 10 -70 9 -51 14 -88 20 -128
7 -52 14 -98 19 -127 10 -54 29 -185 41 -269 3 -30 9 -63 11 -75 2 -11 6 -38
9 -61 3 -22 8 -51 10 -65 3 -14 7 -41 10 -60 3 -19 7 -36 9 -37 1 -2 732 -2
1624 -1 l1620 3 -17 50 c-10 28 -18 53 -19 58 -1 7 -71 234 -95 307 -6 19 -12
38 -13 43 -1 4 -3 9 -4 12 -1 3 -3 8 -4 13 -1 4 -16 52 -34 107 -17 55 -32
103 -32 107 0 5 -9 32 -19 60 -10 29 -38 114 -61 188 -23 74 -58 185 -77 245
-19 61 -36 117 -38 125 -2 8 -13 42 -23 75 -11 33 -37 114 -57 180 -20 66 -40
131 -45 145 -5 14 -30 93 -55 175 -25 83 -49 157 -52 165 -3 8 -7 20 -8 25 0
6 -4 17 -7 25 -9 21 -39 118 -42 133 -2 13 -24 84 -33 107 -4 8 -7 17 -8 20
-8 33 -48 160 -55 175 -6 11 -12 29 -13 40 -2 11 -7 27 -10 35 -3 8 -20 62
-37 120 -17 58 -34 112 -37 120 -4 8 -7 17 -8 20 0 3 -9 32 -20 65 -10 33 -19
62 -20 65 0 3 -6 21 -12 40 -23 70 -82 258 -121 385 -110 354 -137 439 -174
554 -22 68 -41 129 -42 135 -1 6 -9 34 -18 61 -9 28 -40 124 -68 215 -28 91
-60 190 -69 220 -10 30 -30 93 -44 140 -15 47 -36 114 -48 150 -11 36 -22 72
-24 80 -2 8 -11 37 -20 64 -9 26 -18 56 -20 65 -2 9 -16 52 -30 96 -37 115
-98 308 -101 320 -4 16 -62 198 -73 230 l-11 30 -2291 0 c-2031 0 -2292 -2
-2299 -15z m2438 -1307 c-1 -5 2 -33 7 -63 5 -30 10 -62 11 -70 4 -26 15 -92
20 -114 6 -29 10 -56 29 -166 8 -52 20 -115 25 -140 5 -25 12 -61 14 -80 3
-19 10 -57 15 -85 5 -27 13 -67 16 -89 4 -21 9 -48 11 -60 6 -25 7 -30 40
-206 14 -74 28 -146 30 -160 2 -14 7 -36 11 -50 3 -14 7 -32 9 -40 2 -8 6 -31
10 -50 3 -19 8 -44 10 -55 1 -11 10 -54 19 -95 9 -41 18 -82 19 -90 2 -8 7
-33 12 -55 4 -22 9 -44 10 -50 1 -5 3 -12 4 -15 1 -3 3 -14 5 -25 2 -19 13
-68 57 -260 11 -49 22 -98 24 -108 2 -10 5 -26 8 -35 3 -9 7 -28 10 -42 8 -38
13 -60 31 -129 9 -35 14 -65 12 -68 -4 -3 -944 -6 -1060 -3 -16 0 -18 6 -12
53 4 28 8 54 10 57 2 3 6 24 9 46 4 22 9 51 11 64 3 14 8 39 11 55 4 17 7 39
9 50 2 11 8 38 13 60 6 22 14 56 17 75 5 31 14 73 31 145 3 11 7 31 10 45 3
14 9 41 14 60 5 19 11 46 14 60 3 14 30 126 61 250 31 124 58 232 60 241 2 8
10 39 19 67 8 29 12 52 9 52 -3 0 -1 6 5 13 8 11 25 64 27 92 1 6 7 28 13 50
17 54 82 295 87 320 3 11 14 50 26 88 11 37 22 75 24 85 2 9 4 18 4 20 1 1 1
4 1 7 1 3 7 23 15 46 9 23 17 51 20 63 16 78 69 246 77 246 4 0 7 -3 6 -7z"/>
</g>
</svg>
