<?xml version="1.0" standalone="no"?>
<!DOCTYPE svg PUBLIC "-//W3C//DTD SVG 20010904//EN"
 "http://www.w3.org/TR/2001/REC-SVG-20010904/DTD/svg10.dtd">
<svg version="1.0" xmlns="http://www.w3.org/2000/svg"
 width="842.000000pt" height="842.000000pt" viewBox="0 0 842.000000 842.000000"
 preserveAspectRatio="xMidYMid meet">
<metadata>
Created by potrace 1.11, written by Peter Selinger 2001-2013
</metadata>
<g transform="translate(0.000000,842.000000) scale(0.100000,-0.100000)"
fill="#000000" stroke="none">
<path d="M3609 6121 c-2 -7 -5 -30 -14 -101 -4 -30 -8 -64 -10 -75 -2 -11 -6
-40 -9 -65 -3 -25 -8 -61 -11 -80 -3 -19 -7 -55 -10 -80 -5 -47 -13 -107 -20
-150 -2 -14 -7 -50 -10 -80 -3 -30 -8 -68 -11 -85 -3 -16 -7 -48 -9 -69 -3
-21 -7 -57 -11 -80 -3 -23 -7 -59 -9 -81 -2 -22 -5 -40 -5 -40 -3 0 -9 -41
-16 -95 -3 -30 -8 -68 -10 -85 -2 -16 -5 -48 -8 -70 -2 -22 -7 -56 -10 -75 -3
-19 -8 -53 -11 -75 -5 -38 -7 -54 -20 -156 -3 -23 -7 -53 -9 -68 -3 -14 -7
-48 -11 -76 -3 -27 -8 -63 -11 -80 -8 -54 -15 -109 -19 -150 -6 -54 -16 -135
-21 -159 -2 -11 -6 -40 -9 -65 -3 -25 -7 -55 -9 -66 -4 -22 -18 -128 -21 -160
-6 -54 -15 -132 -19 -150 -2 -11 -7 -47 -11 -80 -4 -32 -8 -67 -10 -76 -2 -10
-6 -45 -10 -78 -3 -33 -8 -70 -10 -83 -3 -13 -7 -43 -10 -67 -2 -24 -7 -62
-11 -85 -8 -51 -13 -91 -18 -136 -6 -61 -18 -135 -23 -142 -2 -5 13 -8 34 -9
122 -2 845 0 848 3 3 3 12 86 21 193 13 162 29 350 33 381 1 8 48 11 154 10
145 -1 152 -2 153 -21 2 -24 14 -201 19 -270 2 -27 7 -91 10 -141 8 -119 11
-144 18 -150 4 -5 501 -7 804 -5 61 1 61 1 57 28 -3 16 -5 35 -5 43 -1 8 -5
35 -9 60 -5 25 -11 68 -14 95 -3 28 -8 59 -10 70 -2 11 -6 38 -10 60 -3 22 -9
58 -12 80 -4 22 -8 49 -9 60 -1 11 -5 40 -9 65 -4 25 -9 59 -11 75 -2 17 -8
59 -14 95 -6 36 -13 81 -15 100 -3 19 -7 44 -9 56 -3 12 -8 45 -12 75 -3 30
-8 67 -11 82 -7 36 -14 79 -29 197 -3 25 -7 52 -10 60 -2 8 -6 38 -10 65 -3
28 -10 79 -16 115 -6 36 -12 79 -14 95 -2 17 -7 50 -11 75 -3 25 -8 56 -10 70
-2 14 -11 70 -19 125 -9 55 -18 114 -20 130 -8 60 -18 131 -28 190 -6 35 -14
91 -22 155 -3 25 -8 52 -11 61 -2 9 -7 36 -9 60 -3 24 -7 55 -9 69 -4 23 -19
129 -31 210 -3 19 -7 44 -9 55 -3 11 -7 43 -11 70 -3 28 -10 75 -15 105 -6 30
-12 73 -15 95 -6 54 -25 185 -30 211 -4 20 -5 20 -620 20 -338 0 -616 -2 -616
-5z m657 -773 c1 -25 12 -179 19 -249 2 -24 6 -75 10 -114 3 -38 8 -97 11
-130 3 -33 8 -82 10 -110 2 -27 6 -68 8 -90 3 -22 8 -69 11 -105 5 -65 9 -107
20 -210 4 -30 8 -77 10 -105 3 -27 7 -63 9 -80 3 -16 8 -55 11 -85 l6 -55
-128 2 c-70 1 -136 2 -145 2 -16 1 -17 9 -13 74 3 39 7 88 9 107 2 19 7 64 10
100 4 36 9 81 11 100 2 19 7 62 10 95 4 33 9 74 11 90 3 17 7 50 9 75 2 25 7
65 11 90 12 93 14 106 20 158 3 29 7 61 9 71 2 10 6 42 10 71 9 69 13 88 20
100 3 6 1 10 -5 10 -6 0 -8 5 -3 13 4 6 8 21 9 32 5 55 18 145 23 163 3 9 7
-2 7 -20z"/>
</g>
</svg>
